<svg width="41" height="41" viewBox="0 0 41 41" fill="none" xmlns="http://www.w3.org/2000/svg">
<path d="M20.1916 12.5292C18.614 12.5292 17.0718 12.9971 15.7601 13.8735C14.4483 14.75 13.4259 15.9958 12.8222 17.4533C12.2185 18.9108 12.0605 20.5146 12.3683 22.0619C12.6761 23.6093 13.4358 25.0305 14.5513 26.1461C15.6669 27.2616 17.0881 28.0213 18.6354 28.3291C20.1827 28.6369 21.7866 28.4789 23.2441 27.8752C24.7016 27.2715 25.9474 26.2491 26.8239 24.9373C27.7003 23.6256 28.1682 22.0834 28.1682 20.5058C28.1655 18.3911 27.3242 16.3638 25.8289 14.8685C24.3336 13.3732 22.3063 12.5319 20.1916 12.5292Z" fill="white"/>
<path d="M31.644 13.2378C33.6512 13.2378 35.2783 11.6106 35.2783 9.60343C35.2783 7.59622 33.6512 5.96906 31.644 5.96906C29.6367 5.96906 28.0096 7.59622 28.0096 9.60343C28.0096 11.6106 29.6367 13.2378 31.644 13.2378Z" fill="white"/>
<path d="M36.1182 13.2558L35.9658 12.9214L35.7228 13.1964C35.1276 13.8724 34.3745 14.3909 33.5307 14.7058L33.2963 14.7917L33.3916 15.0206C34.1179 16.758 34.4908 18.6227 34.4885 20.5058C34.4885 28.3901 28.0744 34.8026 20.1916 34.8026C12.3088 34.8026 5.89471 28.3901 5.89471 20.5058C5.89471 12.6214 12.3072 6.2089 20.1916 6.2089C22.3119 6.20447 24.406 6.67707 26.3189 7.59171L26.5432 7.69327L26.6408 7.46515C26.997 6.63811 27.5513 5.91151 28.2549 5.34952L28.5416 5.12062L28.2158 4.9589C25.7378 3.67012 22.9847 3.00001 20.1916 3.00577C10.5424 3.00577 2.69159 10.8566 2.69159 20.5058C2.69159 30.155 10.5424 38.0058 20.1916 38.0058C29.8408 38.0058 37.6916 30.155 37.6916 20.5058C37.6957 18.004 37.159 15.5308 36.1182 13.2558Z" fill="white"/>
</svg>
