<svg width="40" height="40" viewBox="0 0 40 40" fill="none" xmlns="http://www.w3.org/2000/svg">
<path d="M32.0828 14.1188C31.6833 13.9823 31.281 13.8552 30.8758 13.7375C30.943 13.4641 31.0049 13.1891 31.0617 12.9125C31.9758 8.46722 31.3781 4.88597 29.3383 3.70706C27.3852 2.57581 24.182 3.75472 20.9508 6.57347C20.6331 6.85159 20.3219 7.13805 20.0172 7.43284C19.8141 7.23701 19.6057 7.04534 19.3922 6.85784C16.0055 3.84378 12.6109 2.57425 10.5734 3.75706C8.62031 4.89065 8.03984 8.25706 8.8625 12.4703C8.94479 12.887 9.03724 13.3019 9.13984 13.7149C8.67295 13.8472 8.20999 13.9931 7.75156 14.1524C3.78594 15.5391 1.25 17.7133 1.25 19.968C1.25 22.2977 3.97187 24.6336 8.10703 26.05C8.44245 26.1641 8.78099 26.2701 9.12266 26.368C9.01172 26.8102 8.91354 27.2573 8.82812 27.7094C8.04688 31.85 8.65625 35.1367 10.6055 36.2633C12.6187 37.4266 15.9961 36.2313 19.2883 33.3485C19.5487 33.1203 19.8091 32.8795 20.0695 32.6258C20.3987 32.944 20.7372 33.2529 21.0852 33.5524C24.2727 36.3008 27.4203 37.411 29.3664 36.2813C31.3781 35.1141 32.032 31.5828 31.1828 27.2867C31.1177 26.9586 31.0427 26.6237 30.9578 26.2821C31.1953 26.2117 31.4279 26.1391 31.6555 26.0641C35.9523 24.6367 38.7516 22.3289 38.7516 19.9703C38.75 17.7047 36.1328 15.5164 32.0828 14.1188ZM22.0047 7.7844C24.7727 5.36956 27.3602 4.41644 28.5398 5.09769C29.7953 5.82347 30.2836 8.75003 29.4945 12.5883C29.4424 12.8383 29.3862 13.0875 29.3258 13.336C27.6739 12.9602 25.9989 12.6951 24.3117 12.5422C23.3457 11.1507 22.2868 9.82608 21.1422 8.57737C21.4224 8.3055 21.7094 8.04117 22.0031 7.7844H22.0047ZM12.3227 21.8946C12.6617 22.5508 13.0161 23.199 13.3859 23.8391C13.7625 24.4922 14.1549 25.1357 14.5633 25.7696C13.4024 25.6433 12.2488 25.4574 11.107 25.2125C11.4383 24.1407 11.8461 23.0274 12.3227 21.8946ZM12.3227 18.1188C11.8539 17.0102 11.457 15.9196 11.1312 14.8664C12.2016 14.6266 13.3422 14.4305 14.5312 14.2821C14.1328 14.9039 13.7495 15.5349 13.3813 16.175C13.013 16.8151 12.6594 17.463 12.3203 18.1188H12.3227ZM13.1742 20.0071C13.668 18.9774 14.1997 17.9675 14.7695 16.9774C15.3388 15.9878 15.9448 15.0209 16.5875 14.0766C17.7031 13.9922 18.8469 13.9477 20.0023 13.9477C21.1578 13.9477 22.3086 13.9922 23.4234 14.0774C24.0594 15.0196 24.6617 15.9831 25.2305 16.968C25.7992 17.9529 26.338 18.9581 26.8469 19.9836C26.3448 21.017 25.8073 22.031 25.2344 23.0258C24.6661 24.0154 24.0672 24.9852 23.4375 25.9352C22.3242 26.0133 21.1719 26.0563 20 26.0563C18.8281 26.0563 17.6977 26.0196 16.6047 25.9485C15.9573 25.0011 15.3464 24.03 14.7719 23.0352C14.1974 22.0404 13.6641 21.031 13.1719 20.0071H13.1742ZM26.6211 23.8282C26.9987 23.1729 27.3612 22.5091 27.7086 21.8367C28.1848 22.9165 28.6052 24.02 28.968 25.143C27.8128 25.4031 26.6448 25.6026 25.4688 25.7407C25.8656 25.111 26.2497 24.4735 26.6211 23.8282ZM27.693 18.1196C27.3471 17.4607 26.9875 16.8097 26.6141 16.1664C26.2495 15.5321 25.8695 14.9055 25.4742 14.2867C26.6703 14.4383 27.818 14.6399 28.8937 14.886C28.5479 15.9832 28.1471 17.0625 27.693 18.1196ZM20.018 9.72503C20.7981 10.5775 21.5347 11.4687 22.225 12.3953C20.7484 12.325 19.2708 12.325 17.7922 12.3953C18.5211 11.4313 19.2672 10.5367 20.018 9.72503ZM11.3797 5.14534C12.6344 4.41722 15.4086 5.45784 18.3328 8.05706C18.5195 8.22347 18.7078 8.39769 18.8953 8.57815C17.7448 9.82668 16.6784 11.1502 15.7031 12.5399C14.0197 12.6915 12.348 12.9525 10.6984 13.3211C10.6031 12.9378 10.5172 12.5519 10.4406 12.1633C9.73359 8.55159 10.2016 5.82894 11.3797 5.14534ZM9.55078 24.8211C9.23828 24.7321 8.92969 24.6354 8.625 24.5313C6.79688 23.9063 5.28672 23.0907 4.25 22.2024C3.32188 21.4063 2.85156 20.6117 2.85156 19.968C2.85156 18.6 4.8875 16.8547 8.28281 15.6711C8.70937 15.5227 9.13958 15.387 9.57344 15.2641C10.0777 16.8846 10.6884 18.4701 11.4016 20.0102C10.6799 21.5716 10.0616 23.1787 9.55078 24.8211ZM18.2328 32.1391C16.7773 33.4141 15.3195 34.318 14.0344 34.7735C12.8797 35.1821 11.9602 35.1938 11.4047 34.8727C10.2219 34.1891 9.72969 31.5492 10.4008 28.0086C10.4805 27.592 10.5716 27.1753 10.6742 26.7586C12.3403 27.1175 14.0288 27.3626 15.7281 27.4922C16.7129 28.8892 17.7881 30.2201 18.9469 31.4766C18.7141 31.7055 18.4758 31.9258 18.2328 32.1391ZM20.0625 30.325C19.3031 29.5039 18.5453 28.5953 17.8062 27.6188C18.5245 27.6469 19.2557 27.661 20 27.661C20.7641 27.661 21.5203 27.6446 22.2656 27.611C21.5778 28.5525 20.8425 29.4584 20.0625 30.325ZM29.7906 32.5586C29.5672 33.7649 29.118 34.5696 28.5625 34.8914C27.3805 35.5774 24.8531 34.686 22.1281 32.3352C21.8156 32.0664 21.5031 31.7782 21.1852 31.4758C22.3213 30.2145 23.3713 28.8781 24.3281 27.4758C26.0369 27.331 27.7336 27.0687 29.4062 26.6907C29.4828 27 29.5505 27.3032 29.6094 27.6C29.9852 29.4985 30.0391 31.2157 29.7906 32.5586ZM31.15 24.5399C30.9453 24.6078 30.7344 24.6735 30.5203 24.7375C29.9958 23.1094 29.3613 21.5187 28.6211 19.9766C29.3335 18.455 29.9432 16.8875 30.4461 15.2844C30.8297 15.3961 31.2023 15.5133 31.5609 15.6375C35.0312 16.8344 37.1484 18.6063 37.1484 19.968C37.1484 21.4211 34.8617 23.3071 31.15 24.5399Z" fill="white"/>
<path d="M20 23.3242C20.6649 23.3264 21.3155 23.1312 21.8693 22.7634C22.4232 22.3956 22.8555 21.8717 23.1114 21.258C23.3674 20.6443 23.4355 19.9686 23.3071 19.3162C23.1787 18.6638 22.8596 18.0642 22.3902 17.5933C21.9209 17.1224 21.3223 16.8013 20.6703 16.6708C20.0184 16.5403 19.3424 16.6062 18.7279 16.8601C18.1134 17.1141 17.5881 17.5446 17.2185 18.0973C16.8489 18.65 16.6516 19.2999 16.6516 19.9648C16.6506 20.4053 16.7365 20.8417 16.9043 21.249C17.0722 21.6563 17.3186 22.0265 17.6296 22.3385C17.9405 22.6504 18.31 22.8981 18.7167 23.0672C19.1234 23.2364 19.5595 23.3237 20 23.3242Z" fill="white"/>
</svg>
