<svg width="41" height="40" viewBox="0 0 41 40" fill="none" xmlns="http://www.w3.org/2000/svg">
<path d="M2.69995 2.5V37.5H37.7V2.5H2.69995ZM21.45 29.6875C21.45 33.0945 19.4375 34.7555 16.5242 34.7555C13.8929 34.7555 12.3656 33.393 11.5906 31.7484L14.2687 30.1273C14.7851 31.0438 15.1773 31.8188 16.3046 31.8188C17.2421 31.8188 18.0125 31.3961 18.0125 29.7516V18.75H21.45V29.6875ZM29.2117 34.6773C26.1578 34.6773 24.1843 33.2992 23.221 31.3961L25.9031 29.8438C26.6062 30.9953 27.5242 31.7625 29.1453 31.7625C30.5078 31.7625 31.2992 31.1594 31.2992 30.2195C31.2992 29.0922 30.4843 28.693 28.9804 28.032L28.1585 27.6789C25.7851 26.6695 24.2117 25.4008 24.2117 22.7219C24.2117 20.2555 26.0906 18.4539 29.0273 18.4539C31.1187 18.4539 32.621 19.1039 33.7031 21.007L31.1375 22.6562C30.5734 21.6461 29.9656 21.25 29.0234 21.25C28.0601 21.25 27.4492 21.8609 27.4492 22.6562C27.4492 23.643 28.0601 24.0422 29.4695 24.6531L30.2914 25.0055C33.0875 26.2039 34.6617 27.4273 34.6617 30.1742C34.6625 33.1352 32.3367 34.6773 29.2117 34.6773Z" fill="white"/>
</svg>
