<svg width="41" height="40" viewBox="0 0 41 40" fill="none" xmlns="http://www.w3.org/2000/svg">
<g clip-path="url(#clip0_9_7789)">
<path d="M40.0976 18.3297C39.8414 18.0539 38.0023 15.807 37.0109 14.5961C36.4836 13.9523 36.0672 13.4438 35.8922 13.2328L35.8781 13.2156L35.8625 13.1992C35.4547 12.7437 34.875 12.2219 34.0047 12.2219C33.8632 12.2237 33.7219 12.2352 33.582 12.2563C33.5531 12.2602 33.5234 12.2648 33.4922 12.268C33.3008 12.2891 32.7062 12.3852 31.2937 12.618C30.2 12.7969 28.5508 13.0687 28.3008 13.0922L28.2453 13.0969L28.1914 13.107C27.4101 13.2461 26.8929 13.593 26.6633 14.1375C26.5422 14.425 26.4117 15.0086 26.8929 15.6891C27.0125 15.8625 27.4265 16.4359 28.1383 17.4211C28.6117 18.0773 29.1437 18.8133 29.6031 19.4523L20.9047 21.4844L12.3703 7.50391L12.3547 7.47734L12.3367 7.45156L12.3023 7.40078C11.9531 6.88828 11.5187 6.25 10.264 6.25C10.1758 6.25 10.0836 6.25 9.98044 6.25859C9.62107 6.27813 8.307 6.38125 6.78591 6.50156C5.107 6.63359 2.80935 6.81406 2.51091 6.82187H2.45388L2.39216 6.82813C1.6781 6.89766 1.16013 7.1875 0.853098 7.6875C0.341379 8.52266 0.74216 9.46016 0.87341 9.76797C1.13669 10.3906 3.53435 15.4453 5.64919 19.907C7.05544 22.8711 8.507 25.9359 8.62575 26.2078C8.83458 26.7157 9.19209 27.1485 9.65135 27.4496C10.1106 27.7506 10.6502 27.9057 11.1992 27.8945C11.4583 27.8934 11.7165 27.8646 11.9695 27.8086H11.9859L12.0015 27.8047C13.0843 27.5406 16.5195 26.6688 18.9703 26.0398C19.1187 26.2992 19.275 26.5734 19.439 26.8555C21.1523 29.8633 22.4 32.0391 22.8109 32.5945C23.0218 32.8906 23.6468 33.75 24.8234 33.75C25.25 33.75 25.6406 33.6406 26.0531 33.5242L26.1726 33.4906H26.182C27.0047 33.2562 37.9547 29.4156 38.5156 29.1664L38.5328 29.1586C38.9578 28.9703 39.6 28.6859 39.7968 27.9555C39.9258 27.4773 39.8109 26.9922 39.4547 26.5133L39.4492 26.5063L39.4437 26.4992C39.3773 26.4133 39.1312 26.0922 38.7976 25.6477C38.0843 24.7047 36.932 23.1812 35.9195 21.8555C37.2765 21.5039 38.9508 21.0656 39.3086 20.9531C40.2047 20.6852 40.4758 20.118 40.5586 19.8023C40.6203 19.5562 40.7008 18.9273 40.0976 18.3297ZM15.0976 22.8758C13.7062 23.2016 12.7367 23.4289 12.1375 23.5711C11.6164 22.5289 10.5953 20.4734 9.59841 18.4672C7.27497 13.7859 6.07497 11.3758 5.44372 10.1156L6.08044 10.0609C7.12263 9.97109 8.54997 9.84844 9.3445 9.78203C10.6539 11.9898 15.1508 19.5711 16.8679 22.4617L15.0976 22.8758ZM29.0164 28.082C27.125 28.707 26.1 29.0484 25.5461 29.2336C25.0539 28.4258 23.9711 26.6148 23.0093 25L32.0484 22.6969C32.439 23.2289 33.1867 24.2375 34.6625 26.207C33.2508 26.6789 30.8968 27.4586 29.0164 28.082ZM33.3812 18.5797L31.525 16.1164C32.5929 15.9297 33.2078 15.8219 33.5679 15.757L34.5054 16.9195L35.4383 18.0773C34.7976 18.2328 34.0523 18.4148 33.3812 18.5797Z" fill="white"/>
</g>
<defs>
<clipPath id="clip0_9_7789">
<rect width="40" height="40" fill="white" transform="translate(0.599976)"/>
</clipPath>
</defs>
</svg>
