<svg width="25" height="25" viewBox="0 0 25 25" fill="none" xmlns="http://www.w3.org/2000/svg">
<g clip-path="url(#clip0_9_7865)">
<mask id="path-1-outside-1_9_7865" maskUnits="userSpaceOnUse" x="-0.65625" y="-0.65625" width="27" height="27" fill="black">
<rect fill="white" x="-0.65625" y="-0.65625" width="27" height="27"/>
<path d="M12.5 2.34375C6.8999 2.34375 2.34375 6.8999 2.34375 12.5C2.34375 18.1001 6.8999 22.6562 12.5 22.6562C18.1001 22.6562 22.6562 18.1001 22.6562 12.5C22.6562 6.8999 18.1001 2.34375 12.5 2.34375ZM17.7856 9.09619L11.2231 16.9087C11.1512 16.9944 11.0616 17.0637 10.9605 17.1118C10.8594 17.1599 10.7491 17.1857 10.6372 17.1875H10.624C10.5145 17.1875 10.4062 17.1644 10.3062 17.1198C10.2062 17.0752 10.1167 17.0101 10.0435 16.9287L7.23096 13.8037C7.15953 13.728 7.10397 13.6387 7.06753 13.5411C7.0311 13.4436 7.01453 13.3398 7.0188 13.2357C7.02307 13.1317 7.04809 13.0296 7.0924 12.9353C7.1367 12.8411 7.1994 12.7567 7.27679 12.687C7.35419 12.6174 7.44473 12.5639 7.54308 12.5298C7.64144 12.4956 7.74564 12.4814 7.84954 12.4881C7.95345 12.4948 8.05497 12.5222 8.14814 12.5687C8.24131 12.6152 8.32425 12.6798 8.39209 12.7588L10.6035 15.2158L16.5894 8.09131C16.7236 7.93607 16.9136 7.83991 17.1182 7.82361C17.3228 7.8073 17.5256 7.87217 17.6827 8.00418C17.8399 8.1362 17.9388 8.32475 17.958 8.52909C17.9773 8.73343 17.9154 8.93714 17.7856 9.09619Z"/>
</mask>
<path d="M12.5 2.34375C6.8999 2.34375 2.34375 6.8999 2.34375 12.5C2.34375 18.1001 6.8999 22.6562 12.5 22.6562C18.1001 22.6562 22.6562 18.1001 22.6562 12.5C22.6562 6.8999 18.1001 2.34375 12.5 2.34375ZM17.7856 9.09619L11.2231 16.9087C11.1512 16.9944 11.0616 17.0637 10.9605 17.1118C10.8594 17.1599 10.7491 17.1857 10.6372 17.1875H10.624C10.5145 17.1875 10.4062 17.1644 10.3062 17.1198C10.2062 17.0752 10.1167 17.0101 10.0435 16.9287L7.23096 13.8037C7.15953 13.728 7.10397 13.6387 7.06753 13.5411C7.0311 13.4436 7.01453 13.3398 7.0188 13.2357C7.02307 13.1317 7.04809 13.0296 7.0924 12.9353C7.1367 12.8411 7.1994 12.7567 7.27679 12.687C7.35419 12.6174 7.44473 12.5639 7.54308 12.5298C7.64144 12.4956 7.74564 12.4814 7.84954 12.4881C7.95345 12.4948 8.05497 12.5222 8.14814 12.5687C8.24131 12.6152 8.32425 12.6798 8.39209 12.7588L10.6035 15.2158L16.5894 8.09131C16.7236 7.93607 16.9136 7.83991 17.1182 7.82361C17.3228 7.8073 17.5256 7.87217 17.6827 8.00418C17.8399 8.1362 17.9388 8.32475 17.958 8.52909C17.9773 8.73343 17.9154 8.93714 17.7856 9.09619Z" fill="#0057FF"/>
<path d="M17.7856 9.09619L20.0828 11.0258L20.0967 11.0092L20.1104 10.9924L17.7856 9.09619ZM11.2231 16.9087L8.92603 14.9791L8.92554 14.9797L11.2231 16.9087ZM10.6372 17.1875V20.1875H10.661L10.6848 20.1871L10.6372 17.1875ZM10.624 17.1875L10.6229 20.1875H10.624V17.1875ZM10.0435 16.9287L12.2739 14.9225L12.2733 14.9218L10.0435 16.9287ZM7.23096 13.8037L9.46084 11.7968L9.43759 11.771L9.41376 11.7457L7.23096 13.8037ZM8.39209 12.7588L6.11614 14.7133L6.13889 14.7398L6.16225 14.7657L8.39209 12.7588ZM10.6035 15.2158L8.37368 17.2228L10.6814 19.7868L12.9004 17.1456L10.6035 15.2158ZM16.5894 8.09131L14.3203 6.12876L14.3063 6.14503L14.2924 6.1615L16.5894 8.09131ZM12.5 -0.65625C5.24305 -0.65625 -0.65625 5.24305 -0.65625 12.5H5.34375C5.34375 8.55676 8.55676 5.34375 12.5 5.34375V-0.65625ZM-0.65625 12.5C-0.65625 19.757 5.24305 25.6562 12.5 25.6562V19.6562C8.55676 19.6562 5.34375 16.4432 5.34375 12.5H-0.65625ZM12.5 25.6562C19.757 25.6562 25.6562 19.757 25.6562 12.5H19.6562C19.6562 16.4432 16.4432 19.6562 12.5 19.6562V25.6562ZM25.6562 12.5C25.6562 5.24305 19.757 -0.65625 12.5 -0.65625V5.34375C16.4432 5.34375 19.6562 8.55676 19.6562 12.5H25.6562ZM15.4885 7.16662L8.92603 14.9791L13.5203 18.8383L20.0828 11.0258L15.4885 7.16662ZM8.92554 14.9797C9.12999 14.7362 9.38438 14.5395 9.67148 14.4028L12.2495 19.8208C12.7388 19.5879 13.1723 19.2527 13.5207 18.8377L8.92554 14.9797ZM9.67148 14.4028C9.95859 14.2662 10.2717 14.1929 10.5896 14.1879L10.6848 20.1871C11.2266 20.1785 11.7602 20.0536 12.2495 19.8208L9.67148 14.4028ZM10.6372 14.1875H10.624V20.1875H10.6372V14.1875ZM10.6251 14.1875C10.9361 14.1876 11.2436 14.2531 11.5276 14.3797L9.08482 19.8599C9.56891 20.0757 10.0929 20.1873 10.6229 20.1875L10.6251 14.1875ZM11.5276 14.3797C11.8117 14.5063 12.0659 14.6912 12.2739 14.9225L7.81299 18.935C8.16743 19.329 8.60074 19.6441 9.08482 19.8599L11.5276 14.3797ZM12.2733 14.9218L9.46084 11.7968L5.00107 15.8106L7.81357 18.9356L12.2733 14.9218ZM9.41376 11.7457C9.61661 11.9609 9.77441 12.2144 9.87788 12.4914L4.25719 14.5909C4.43352 15.063 4.70245 15.495 5.04816 15.8617L9.41376 11.7457ZM9.87788 12.4914C9.98135 12.7684 10.0284 13.0633 10.0163 13.3588L4.02133 13.1127C4.00066 13.6162 4.08085 14.1188 4.25719 14.5909L9.87788 12.4914ZM10.0163 13.3588C10.0042 13.6542 9.93309 13.9443 9.80726 14.2119L4.37754 11.6588C4.1631 12.1149 4.04199 12.6092 4.02133 13.1127L10.0163 13.3588ZM9.80726 14.2119C9.68144 14.4795 9.50339 14.7192 9.28358 14.917L5.27 10.4571C4.8954 10.7942 4.59197 11.2028 4.37754 11.6588L9.80726 14.2119ZM9.28358 14.917C9.06376 15.1148 8.80663 15.2667 8.52731 15.3637L6.55886 9.69581C6.08282 9.86114 5.64461 10.12 5.27 10.4571L9.28358 14.917ZM8.52731 15.3637C8.24799 15.4607 7.95208 15.5009 7.65697 15.4819L8.04212 9.49432C7.53919 9.46197 7.03489 9.53048 6.55886 9.69581L8.52731 15.3637ZM7.65697 15.4819C7.36188 15.463 7.07355 15.3852 6.80895 15.2532L9.48734 9.88418C9.03639 9.65922 8.54502 9.52667 8.04212 9.49432L7.65697 15.4819ZM6.80895 15.2532C6.54434 15.1212 6.30879 14.9376 6.11614 14.7133L10.668 10.8043C10.3397 10.422 9.93829 10.1091 9.48734 9.88418L6.80895 15.2532ZM6.16225 14.7657L8.37368 17.2228L12.8334 13.2089L10.6219 10.7518L6.16225 14.7657ZM12.9004 17.1456L18.8863 10.0211L14.2924 6.1615L8.3066 13.286L12.9004 17.1456ZM18.8584 10.0539C18.477 10.4947 17.9375 10.7678 17.3565 10.8141L16.8799 4.83309C15.8896 4.912 14.9702 5.37742 14.3203 6.12876L18.8584 10.0539ZM17.3565 10.8141C16.7754 10.8604 16.1995 10.6762 15.7532 10.3013L19.6123 5.70707C18.8517 5.06813 17.8701 4.75418 16.8799 4.83309L17.3565 10.8141ZM15.7532 10.3013C15.3068 9.92638 15.026 9.39088 14.9713 8.81056L20.9448 8.24763C20.8516 7.25863 20.373 6.34601 19.6123 5.70707L15.7532 10.3013ZM14.9713 8.81056C14.9166 8.23023 15.0925 7.65169 15.4609 7.19999L20.1104 10.9924C20.7383 10.2226 21.038 9.23664 20.9448 8.24763L14.9713 8.81056Z" fill="white" mask="url(#path-1-outside-1_9_7865)"/>
</g>
<defs>
<clipPath id="clip0_9_7865">
<rect width="25" height="25" fill="white"/>
</clipPath>
</defs>
</svg>
