<svg width="20" height="20" viewBox="0 0 20 20" fill="none" xmlns="http://www.w3.org/2000/svg">
<path d="M11.7169 14.8103L9.79071 16.7365C8.92516 17.602 7.75122 18.0883 6.52714 18.0883C5.30306 18.0883 4.12912 17.602 3.26357 16.7365C2.39802 15.8709 1.91176 14.697 1.91176 13.4729C1.91176 12.2488 2.39802 11.0749 3.26357 10.2093L5.14726 8.32564M8.99487 4.47803L10.8786 2.59433C11.7441 1.72878 12.9181 1.24252 14.1421 1.24252C15.3662 1.24252 16.5402 1.72878 17.4057 2.59433C18.2713 3.45989 18.7575 4.63383 18.7575 5.8579C18.7575 7.08198 18.2713 8.25592 17.4057 9.12147L15.4795 11.0477M7.37941 12.6206L13.3579 6.64218" stroke="#0057FF" stroke-width="2.5" stroke-linecap="round" stroke-linejoin="round"/>
</svg>
