<svg width="35" height="35" viewBox="0 0 35 35" fill="none" xmlns="http://www.w3.org/2000/svg">
<path fill-rule="evenodd" clip-rule="evenodd" d="M11.9001 0H23.0999C26.5777 0 29.4 2.82224 29.4 6.30004C29.4 8.73721 28.014 10.8523 25.9877 11.8999C28.014 12.9476 29.4 15.0628 29.4 17.5C29.4 20.9778 26.5777 23.8 23.0999 23.8C21.1216 23.8 19.3554 22.8868 18.2001 21.4592V28.7C18.2001 32.1778 15.3779 35 11.9001 35C8.42224 35 5.59998 32.1778 5.59998 28.7C5.59998 26.2628 6.98596 24.1476 9.01226 23.0999C6.98596 22.0523 5.59998 19.9371 5.59998 17.5C5.59998 15.0628 6.98594 12.9476 9.01223 11.8999C6.98595 10.8523 5.59998 8.73721 5.59998 6.30004C5.59998 2.82224 8.42224 0 11.9001 0ZM6.99998 6.30004C6.99998 3.59545 9.19543 1.4 11.9001 1.4H16.7998V11.1999H11.9001L11.8849 11.1999C9.1872 11.1917 6.99998 8.99955 6.99998 6.30004ZM16.8001 17.4333C16.7999 17.4555 16.7998 17.4777 16.7998 17.5C16.7998 17.5222 16.7999 17.5444 16.8001 17.5666V22.3999H11.9C9.19543 22.4 6.99998 20.2046 6.99998 17.5C6.99998 14.8004 9.18729 12.6081 11.885 12.5999L11.9001 12.6H16.7998L16.8001 17.4333ZM18.2001 17.5586V17.4413C18.2316 14.7703 20.404 12.6107 23.0798 12.6H23.0999C23.1049 12.6 23.1099 12.5999 23.115 12.5999C25.8127 12.6081 28 14.8004 28 17.5C28 20.2046 25.8045 22.4 23.0999 22.4C20.4149 22.4 18.2316 20.2362 18.2001 17.5586ZM19.141 12.6C18.7953 12.8796 18.4798 13.1951 18.2001 13.5407V12.6H19.141ZM23.1151 11.1999C23.11 11.1999 23.105 11.1999 23.0999 11.1999C23.0922 11.1999 23.0846 11.1999 23.0769 11.2H18.2001V1.4H23.0999C25.8045 1.4 28 3.59545 28 6.30004C28 8.99955 25.8128 11.1917 23.1151 11.1999ZM11.9001 23.7999C9.19543 23.7999 6.99998 25.9954 6.99998 28.7C6.99998 31.4046 9.19543 33.6 11.9001 33.6C14.6047 33.6 16.8001 31.4046 16.8001 28.7V23.7999H11.9001Z" fill="white"/>
</svg>
