<svg width="109" height="68" viewBox="0 0 109 68" fill="none" xmlns="http://www.w3.org/2000/svg">
<path d="M55.4999 0L70.5984 51.7L75.7999 68H63.4999L48.4016 17.4L43 0H55.4999Z" fill="#0057FF"/>
<path fill-rule="evenodd" clip-rule="evenodd" d="M62.3984 0L47.2999 51.7L42.0984 68H54.3984L67.5984 17.4L80.6984 68H92.9984L108.298 0H96.0984L90.8984 26.9L86.6984 51.7L73.1984 0H62.3984Z" fill="white"/>
<path d="M33.4999 0L48.5984 51.7L53.7999 68H41.4999L26.4016 17.4L21 0H33.4999Z" fill="#0057FF"/>
<path d="M55.6 0L34 68H21.7L0 0H13.2L23.5 34.2L28.2 51.8C28.2 51.8 31.2113 41.002 33.2 34.1C37.0485 20.7435 43.4 0 43.4 0H55.6Z" fill="white"/>
</svg>
