<svg width="170" height="64" viewBox="0 0 170 64" fill="none" xmlns="http://www.w3.org/2000/svg">
<path d="M159.432 26.64V29.04C159.432 31.8667 158.659 34.1333 157.112 35.84C155.565 37.5467 153.379 38.4 150.552 38.4C147.725 38.4 145.539 37.5467 143.992 35.84C142.445 34.1333 141.672 31.8667 141.672 29.04V26.64C141.672 23.8133 142.432 21.56 143.952 19.88C145.499 18.1733 147.699 17.32 150.552 17.32C153.405 17.32 155.592 18.1733 157.112 19.88C158.659 21.56 159.432 23.8133 159.432 26.64ZM154.712 26.64C154.712 25.0133 154.352 23.7467 153.632 22.84C152.912 21.9067 151.885 21.44 150.552 21.44C149.219 21.44 148.192 21.9067 147.472 22.84C146.752 23.7467 146.392 25.0133 146.392 26.64V29.04C146.392 30.6667 146.752 31.9467 147.472 32.88C148.192 33.8133 149.219 34.28 150.552 34.28C151.885 34.28 152.912 33.8133 153.632 32.88C154.352 31.9467 154.712 30.6667 154.712 29.04V26.64Z" fill="white"/>
<path d="M136.614 13.88H131.774V9.12H136.614V13.88ZM136.494 38H131.894V17.72H136.494V38Z" fill="white"/>
<path d="M117.485 26.68V29.04C117.485 30.7467 117.791 32.0267 118.405 32.88C119.018 33.7333 120.005 34.16 121.365 34.16C122.031 34.16 122.778 34.08 123.605 33.92C124.458 33.7333 125.378 33.4533 126.365 33.08L127.685 36.96C126.485 37.44 125.351 37.8 124.285 38.04C123.218 38.28 122.165 38.4 121.125 38.4C118.458 38.4 116.418 37.5467 115.005 35.84C113.591 34.1333 112.885 31.8667 112.885 29.04V26.68C112.885 23.8267 113.591 21.56 115.005 19.88C116.418 18.1733 118.458 17.32 121.125 17.32C122.138 17.32 123.165 17.44 124.205 17.68C125.245 17.92 126.338 18.2667 127.485 18.72L126.165 22.68C124.245 21.9333 122.645 21.56 121.365 21.56C120.005 21.56 119.018 21.9867 118.405 22.84C117.791 23.6667 117.485 24.9467 117.485 26.68Z" fill="white"/>
<path d="M100.525 21.6C99.8587 21.6 99.0987 21.76 98.2453 22.08C97.392 22.4 96.3787 23.0267 95.2053 23.96V38H90.6053V17.72H94.9653V20.44C96.2187 19.3467 97.4053 18.56 98.5253 18.08C99.6453 17.5733 100.779 17.32 101.925 17.32C103.872 17.32 105.352 17.9467 106.365 19.2C107.379 20.4267 107.885 22.16 107.885 24.4V38H103.285V24.96C103.285 22.72 102.365 21.6 100.525 21.6Z" fill="white"/>
<path d="M85.6919 38.2C84.3319 38.2 83.2386 37.92 82.4119 37.36C81.6119 36.8 81.0252 36.1067 80.6519 35.28C79.5052 36.3467 78.3986 37.1333 77.3319 37.64C76.2652 38.1467 75.1186 38.4 73.8919 38.4C72.1052 38.4 70.7852 37.8267 69.9319 36.68C69.1052 35.5333 68.6919 34.08 68.6919 32.32C68.6919 31.1467 68.9052 30.12 69.3319 29.24C69.7852 28.3333 70.5186 27.6267 71.5319 27.12C72.5452 26.6133 73.9319 26.36 75.6919 26.36C76.3852 26.36 77.1052 26.4133 77.8519 26.52C78.5986 26.6 79.3452 26.7067 80.0919 26.84V24.48C80.0919 23.36 79.7852 22.6 79.1719 22.2C78.5586 21.7733 77.7319 21.56 76.6919 21.56C75.8919 21.56 75.0119 21.6667 74.0519 21.88C73.1186 22.0933 72.1052 22.4267 71.0119 22.88L69.6919 18.96C72.3852 17.8667 74.8252 17.32 77.0119 17.32C78.9852 17.32 80.5052 17.6533 81.5719 18.32C82.6652 18.9867 83.4252 19.8667 83.8519 20.96C84.2786 22.0533 84.4919 23.2267 84.4919 24.48V32.28C84.4919 32.68 84.5986 33.0667 84.8119 33.44C85.0519 33.7867 85.5052 33.96 86.1719 33.96H86.6119V38.2H85.6919ZM73.1319 32.24C73.1319 32.96 73.2919 33.5333 73.6119 33.96C73.9319 34.36 74.3986 34.56 75.0119 34.56C75.6252 34.56 76.3186 34.4 77.0919 34.08C77.8652 33.76 78.8652 33.0133 80.0919 31.84V30.12C78.7052 29.88 77.3452 29.76 76.0119 29.76C74.9719 29.76 74.2252 29.9733 73.7719 30.4C73.3452 30.8267 73.1319 31.44 73.1319 32.24ZM79.2119 14.84L76.7719 11.64L74.3319 14.84H70.7719L74.6119 8.39999H79.0919L82.9319 14.84H79.2119Z" fill="white"/>
<path d="M56.8925 21.6C56.2259 21.6 55.4659 21.76 54.6125 22.08C53.7592 22.4 52.7459 23.0267 51.5725 23.96V38H46.9725V17.72H51.3325V20.44C52.5859 19.3467 53.7725 18.56 54.8925 18.08C56.0125 17.5733 57.1459 17.32 58.2925 17.32C60.2392 17.32 61.7192 17.9467 62.7325 19.2C63.7459 20.4267 64.2525 22.16 64.2525 24.4V38H59.6525V24.96C59.6525 22.72 58.7325 21.6 56.8925 21.6Z" fill="white"/>
<path d="M41.5131 36.84C40.1265 37.4 38.8198 37.8 37.5931 38.04C36.3665 38.28 35.2065 38.4 34.1131 38.4C31.0998 38.4 28.8198 37.5467 27.2731 35.84C25.7265 34.1333 24.9531 31.8667 24.9531 29.04V26.64C24.9531 24.7467 25.2998 23.1067 25.9931 21.72C26.6865 20.3333 27.6731 19.2533 28.9531 18.48C30.2331 17.7067 31.7398 17.32 33.4731 17.32C34.8865 17.32 36.2065 17.6133 37.4331 18.2C38.6865 18.76 39.6998 19.6533 40.4731 20.88C41.2731 22.08 41.6731 23.6267 41.6731 25.52C41.6731 26.08 41.6331 26.68 41.5531 27.32C41.4731 27.9333 41.3398 28.5867 41.1531 29.28H29.3931C29.4465 30.9333 29.8598 32.1733 30.6331 33C31.4065 33.8267 32.6465 34.24 34.3531 34.24C35.2598 34.24 36.1931 34.1333 37.1531 33.92C38.1398 33.7067 39.1531 33.3867 40.1931 32.96L41.5131 36.84ZM33.4731 21.2C32.2465 21.2 31.2865 21.6 30.5931 22.4C29.9265 23.1733 29.5398 24.2933 29.4331 25.76H37.1131C37.1398 25.6267 37.1531 25.5067 37.1531 25.4C37.1531 25.2667 37.1531 25.1467 37.1531 25.04C37.1531 23.76 36.7931 22.8 36.0731 22.16C35.3531 21.52 34.4865 21.2 33.4731 21.2Z" fill="white"/>
<path d="M23.8001 10.8L15.1601 38H10.2401L1.56006 10.8H6.84006L10.9601 24.48L12.8401 31.52L14.8401 24.44L18.9201 10.8H23.8001Z" fill="white"/>
<path d="M163.805 51.09C163.605 51.09 163.435 51.05 163.295 50.97C163.155 50.89 163.085 50.74 163.085 50.52C163.085 50.24 163.155 49.92 163.295 49.56C163.435 49.2 163.595 48.85 163.775 48.51C163.955 48.15 164.115 47.86 164.255 47.64C163.555 48.38 162.825 49.08 162.065 49.74C161.685 50.06 161.265 50.36 160.805 50.64C160.345 50.92 159.855 51.06 159.335 51.06C159.135 51.06 158.995 51 158.915 50.88C158.835 50.74 158.795 50.58 158.795 50.4C158.795 50.3 158.805 50.23 158.825 50.19C158.925 49.41 159.175 48.6 159.575 47.76C159.975 46.92 160.465 46.13 161.045 45.39C161.625 44.65 162.215 44.05 162.815 43.59C163.495 43.07 164.245 42.81 165.065 42.81H168.515C168.615 42.81 168.665 42.85 168.665 42.93C168.665 43.09 168.575 43.17 168.395 43.17C168.195 43.17 167.995 43.3 167.795 43.56C167.595 43.8 167.445 44 167.345 44.16C167.205 44.38 166.985 44.75 166.685 45.27C166.385 45.79 166.075 46.36 165.755 46.98C165.455 47.58 165.195 48.14 164.975 48.66C164.755 49.18 164.645 49.56 164.645 49.8C164.645 50.08 164.785 50.22 165.065 50.22C165.365 50.22 165.705 50.08 166.085 49.8C166.465 49.52 166.845 49.18 167.225 48.78C167.625 48.36 167.985 47.95 168.305 47.55C168.645 47.13 168.915 46.8 169.115 46.56C169.235 46.68 169.225 46.85 169.085 47.07C168.965 47.27 168.855 47.43 168.755 47.55C168.355 48.07 167.895 48.61 167.375 49.17C166.855 49.71 166.285 50.17 165.665 50.55C165.065 50.91 164.445 51.09 163.805 51.09ZM160.565 50.04C160.805 50.04 161.135 49.87 161.555 49.53C161.995 49.17 162.465 48.73 162.965 48.21C163.465 47.67 163.935 47.11 164.375 46.53C164.815 45.93 165.175 45.39 165.455 44.91C165.755 44.41 165.905 44.03 165.905 43.77C165.905 43.55 165.835 43.4 165.695 43.32C165.575 43.24 165.415 43.2 165.215 43.2C164.895 43.2 164.545 43.32 164.165 43.56C163.805 43.78 163.515 44 163.295 44.22C163.055 44.44 162.765 44.79 162.425 45.27C162.105 45.73 161.785 46.24 161.465 46.8C161.145 47.36 160.875 47.9 160.655 48.42C160.435 48.94 160.325 49.36 160.325 49.68C160.325 49.92 160.405 50.04 160.565 50.04Z" fill="#0057FF"/>
<path d="M154.987 51.09C154.787 51.09 154.617 51.05 154.477 50.97C154.337 50.89 154.267 50.74 154.267 50.52C154.267 50.24 154.337 49.92 154.477 49.56C154.617 49.2 154.777 48.85 154.957 48.51C155.137 48.15 155.297 47.86 155.437 47.64C154.737 48.38 154.007 49.08 153.247 49.74C152.867 50.06 152.447 50.36 151.987 50.64C151.527 50.92 151.037 51.06 150.517 51.06C150.317 51.06 150.177 51 150.097 50.88C150.017 50.74 149.977 50.58 149.977 50.4C149.977 50.3 149.987 50.23 150.007 50.19C150.107 49.41 150.357 48.6 150.757 47.76C151.157 46.92 151.647 46.13 152.227 45.39C152.807 44.65 153.397 44.05 153.997 43.59C154.457 43.25 154.897 43.04 155.317 42.96C155.737 42.86 156.197 42.81 156.697 42.81H157.687C158.007 42.27 158.337 41.67 158.677 41.01C159.037 40.33 159.387 39.66 159.727 39C160.087 38.34 160.417 37.76 160.717 37.26C161.537 35.86 162.437 34.74 163.417 33.9C164.417 33.06 165.527 32.64 166.747 32.64C167.007 32.64 167.247 32.72 167.467 32.88C167.687 33.02 167.787 33.24 167.767 33.54L167.707 34.62C167.707 34.64 167.687 34.67 167.647 34.71C167.607 34.73 167.577 34.74 167.557 34.74C167.537 34.74 167.507 34.72 167.467 34.68C167.407 34.32 167.227 34.05 166.927 33.87C166.627 33.67 166.257 33.57 165.817 33.57C165.677 33.57 165.517 33.58 165.337 33.6C165.177 33.62 165.017 33.66 164.857 33.72C164.297 33.92 163.767 34.33 163.267 34.95C162.767 35.55 162.227 36.35 161.647 37.35C161.447 37.73 161.187 38.23 160.867 38.85C160.547 39.45 160.207 40.1 159.847 40.8C159.507 41.5 159.177 42.18 158.857 42.84C158.557 43.5 158.297 44.06 158.077 44.52C157.977 44.76 157.807 45.13 157.567 45.63C157.327 46.11 157.067 46.64 156.787 47.22C156.527 47.78 156.297 48.3 156.097 48.78C155.917 49.26 155.827 49.6 155.827 49.8C155.827 50.08 155.947 50.22 156.187 50.22C156.427 50.22 156.747 50.08 157.147 49.8C157.547 49.5 157.957 49.14 158.377 48.72C158.817 48.28 159.207 47.86 159.547 47.46C159.907 47.06 160.157 46.76 160.297 46.56C160.357 46.62 160.387 46.69 160.387 46.77C160.387 46.91 160.327 47.05 160.207 47.19C160.107 47.33 160.017 47.45 159.937 47.55C159.577 48.03 159.127 48.55 158.587 49.11C158.067 49.65 157.497 50.12 156.877 50.52C156.257 50.9 155.627 51.09 154.987 51.09ZM151.747 50.04C151.987 50.04 152.317 49.87 152.737 49.53C153.177 49.17 153.647 48.73 154.147 48.21C154.647 47.67 155.117 47.11 155.557 46.53C155.997 45.93 156.357 45.39 156.637 44.91C156.937 44.41 157.087 44.03 157.087 43.77C157.087 43.55 157.017 43.4 156.877 43.32C156.757 43.24 156.597 43.2 156.397 43.2C156.077 43.2 155.727 43.32 155.347 43.56C154.987 43.78 154.697 44 154.477 44.22C154.237 44.44 153.947 44.79 153.607 45.27C153.287 45.73 152.967 46.24 152.647 46.8C152.327 47.36 152.057 47.9 151.837 48.42C151.617 48.94 151.507 49.36 151.507 49.68C151.507 49.92 151.587 50.04 151.747 50.04Z" fill="#0057FF"/>
<path d="M141.184 51.45C141.104 51.45 141.104 51.36 141.184 51.18C141.284 51 141.374 50.8 141.454 50.58C141.554 50.36 141.654 50.12 141.754 49.86C141.954 49.38 142.174 48.84 142.414 48.24C142.654 47.64 142.884 47.06 143.104 46.5C143.324 45.92 143.514 45.43 143.674 45.03C143.854 44.61 143.974 44.34 144.034 44.22C143.754 44.52 143.414 44.9 143.014 45.36C142.634 45.8 142.274 46.23 141.934 46.65C141.594 47.07 141.334 47.4 141.154 47.64C141.094 47.72 141.044 47.76 141.004 47.76C140.964 47.76 140.944 47.71 140.944 47.61C140.944 47.45 140.994 47.3 141.094 47.16C141.474 46.68 141.894 46.14 142.354 45.54C142.834 44.94 143.264 44.39 143.644 43.89C144.024 43.37 144.264 43.03 144.364 42.87C144.584 42.83 144.904 42.77 145.324 42.69C145.764 42.61 146.064 42.5 146.224 42.36C146.284 42.3 146.344 42.27 146.404 42.27C146.444 42.27 146.464 42.31 146.464 42.39C146.484 42.45 146.464 42.52 146.404 42.6C146.284 42.74 146.074 43.07 145.774 43.59C145.494 44.09 145.184 44.65 144.844 45.27C144.524 45.89 144.224 46.45 143.944 46.95C144.184 46.63 144.444 46.32 144.724 46.02C145.004 45.72 145.274 45.43 145.534 45.15C145.774 44.91 146.104 44.61 146.524 44.25C146.944 43.89 147.384 43.56 147.844 43.26C148.304 42.96 148.704 42.79 149.044 42.75C149.124 42.73 149.194 42.72 149.254 42.72C149.334 42.72 149.394 42.72 149.434 42.72C149.874 42.72 150.094 42.88 150.094 43.2C150.094 43.44 149.964 43.76 149.704 44.16C149.564 44.38 149.344 44.75 149.044 45.27C148.764 45.77 148.474 46.32 148.174 46.92C147.894 47.5 147.644 48.05 147.424 48.57C147.224 49.07 147.124 49.44 147.124 49.68C147.124 49.96 147.264 50.1 147.544 50.1C147.884 50.1 148.254 49.93 148.654 49.59C149.074 49.25 149.524 48.82 150.004 48.3C150.484 47.76 150.964 47.19 151.444 46.59C151.484 46.63 151.504 46.7 151.504 46.8C151.504 46.94 151.454 47.08 151.354 47.22C151.274 47.34 151.194 47.45 151.114 47.55C150.914 47.81 150.644 48.14 150.304 48.54C149.984 48.92 149.654 49.3 149.314 49.68C148.974 50.04 148.664 50.33 148.384 50.55C148.184 50.69 147.924 50.84 147.604 51C147.284 51.16 146.964 51.24 146.644 51.24C146.284 51.24 146.034 51.15 145.894 50.97C145.754 50.77 145.684 50.53 145.684 50.25C145.684 49.93 145.744 49.59 145.864 49.23C145.984 48.87 146.114 48.53 146.254 48.21C146.414 47.87 146.534 47.62 146.614 47.46C146.974 46.76 147.304 46.1 147.604 45.48C147.904 44.86 148.114 44.42 148.234 44.16C148.294 44.04 148.324 43.94 148.324 43.86C148.324 43.72 148.214 43.71 147.994 43.83C147.774 43.95 147.504 44.13 147.184 44.37C146.884 44.61 146.604 44.85 146.344 45.09C146.084 45.31 145.914 45.46 145.834 45.54C145.094 46.32 144.444 47.19 143.884 48.15C143.344 49.09 142.884 50.06 142.504 51.06C142.244 51.08 141.984 51.15 141.724 51.27C141.464 51.39 141.284 51.45 141.184 51.45Z" fill="#0057FF"/>
<path d="M141.473 39.54C141.193 39.54 140.993 39.45 140.873 39.27C140.793 39.17 140.753 39.04 140.753 38.88C140.753 38.56 140.903 38.3 141.203 38.1C141.423 37.98 141.623 37.92 141.803 37.92C142.103 37.92 142.313 38.01 142.433 38.19C142.513 38.29 142.553 38.42 142.553 38.58C142.553 38.9 142.393 39.16 142.073 39.36C141.893 39.48 141.693 39.54 141.473 39.54ZM136.253 51.09C136.053 51.09 135.883 51.05 135.743 50.97C135.623 50.89 135.563 50.74 135.563 50.52C135.563 50.24 135.633 49.91 135.773 49.53C135.933 49.15 136.103 48.77 136.283 48.39C136.483 48.01 136.633 47.7 136.733 47.46C136.873 47.18 137.043 46.82 137.243 46.38C137.463 45.92 137.663 45.49 137.843 45.09C138.043 44.67 138.183 44.38 138.263 44.22C137.983 44.52 137.643 44.9 137.243 45.36C136.863 45.8 136.503 46.23 136.163 46.65C135.823 47.07 135.563 47.4 135.383 47.64C135.323 47.72 135.273 47.76 135.233 47.76C135.193 47.76 135.173 47.71 135.173 47.61C135.173 47.45 135.223 47.3 135.323 47.16C135.703 46.68 136.123 46.14 136.583 45.54C137.063 44.94 137.493 44.39 137.873 43.89C138.253 43.37 138.493 43.03 138.593 42.87C138.813 42.83 139.133 42.77 139.553 42.69C139.993 42.61 140.293 42.5 140.453 42.36C140.513 42.3 140.573 42.27 140.633 42.27C140.673 42.27 140.693 42.31 140.693 42.39C140.713 42.45 140.693 42.52 140.633 42.6C140.513 42.74 140.303 43.08 140.003 43.62C139.703 44.16 139.383 44.76 139.043 45.42C138.723 46.06 138.423 46.64 138.143 47.16C137.863 47.7 137.623 48.22 137.423 48.72C137.223 49.22 137.123 49.58 137.123 49.8C137.123 50.08 137.263 50.22 137.543 50.22C137.803 50.22 138.133 50.06 138.533 49.74C138.953 49.42 139.373 49.04 139.793 48.6C140.213 48.14 140.583 47.72 140.903 47.34C141.003 47.22 141.123 47.08 141.263 46.92C141.423 46.74 141.523 46.63 141.563 46.59C141.603 46.63 141.623 46.7 141.623 46.8C141.603 46.94 141.553 47.08 141.473 47.22C141.393 47.34 141.313 47.45 141.233 47.55C140.813 48.07 140.353 48.61 139.853 49.17C139.353 49.71 138.803 50.17 138.203 50.55C137.603 50.91 136.953 51.09 136.253 51.09Z" fill="#0057FF"/>
<path d="M118.076 61.5C117.316 61.5 116.586 61.32 115.886 60.96C115.166 60.62 114.636 60.09 114.296 59.37C114.176 59.11 114.096 58.83 114.056 58.53C114.016 58.25 113.996 57.97 113.996 57.69V57.36C113.996 57.2 114.016 57.05 114.056 56.91C114.096 56.79 114.196 56.73 114.356 56.73C114.416 56.73 114.446 56.75 114.446 56.79C114.446 56.91 114.436 57.03 114.416 57.15C114.376 57.27 114.356 57.4 114.356 57.54C114.356 58.46 114.656 59.16 115.256 59.64C115.836 60.12 116.566 60.36 117.446 60.36C117.806 60.36 118.176 60.32 118.556 60.24C118.936 60.16 119.296 60.05 119.636 59.91C120.896 59.37 121.996 58.61 122.936 57.63C123.876 56.65 124.696 55.54 125.396 54.3C126.096 53.06 126.716 51.79 127.256 50.49C127.836 49.07 128.386 47.67 128.906 46.29C129.446 44.89 130.046 43.52 130.706 42.18C131.326 40.94 131.986 40.01 132.686 39.39C133.386 38.77 134.086 38.46 134.786 38.46C134.966 38.46 135.136 38.51 135.296 38.61C135.476 38.71 135.556 38.87 135.536 39.09L135.476 39.93C135.476 39.99 135.436 40.02 135.356 40.02C135.356 40.02 135.346 40.02 135.326 40.02C135.326 40.02 135.326 40.01 135.326 39.99C135.326 39.75 135.236 39.59 135.056 39.51C134.896 39.41 134.736 39.36 134.576 39.36C133.896 39.36 133.286 39.6 132.746 40.08C132.226 40.54 131.766 41.14 131.366 41.88C130.966 42.62 130.626 43.4 130.346 44.22C130.066 45.02 129.836 45.76 129.656 46.44C129.796 46.32 130.046 46.07 130.406 45.69C130.786 45.31 131.226 44.9 131.726 44.46C132.226 44.02 132.736 43.64 133.256 43.32C133.776 43 134.256 42.84 134.696 42.84C134.956 42.84 135.106 42.96 135.146 43.2C135.206 43.42 135.216 43.63 135.176 43.83C135.076 44.57 134.826 45.37 134.426 46.23C134.026 47.09 133.506 47.91 132.866 48.69C132.246 49.45 131.546 50.07 130.766 50.55C130.006 51.03 129.206 51.27 128.366 51.27C128.266 51.27 128.126 51.26 127.946 51.24C127.786 51.24 127.686 51.22 127.646 51.18C127.226 52.44 126.686 53.73 126.026 55.05C125.366 56.37 124.576 57.56 123.656 58.62C122.716 59.7 121.606 60.51 120.326 61.05C119.646 61.35 118.896 61.5 118.076 61.5ZM128.816 50.76C129.116 50.76 129.456 50.64 129.836 50.4C130.236 50.14 130.536 49.91 130.736 49.71C130.976 49.49 131.256 49.15 131.576 48.69C131.916 48.21 132.246 47.69 132.566 47.13C132.906 46.57 133.186 46.03 133.406 45.51C133.626 44.99 133.736 44.57 133.736 44.25C133.736 44.15 133.716 44.06 133.676 43.98C133.636 43.9 133.566 43.86 133.466 43.86C133.286 43.86 133.046 43.97 132.746 44.19C132.446 44.41 132.126 44.68 131.786 45C131.466 45.3 131.166 45.6 130.886 45.9C130.606 46.18 130.406 46.39 130.286 46.53C130.086 46.77 129.816 47.12 129.476 47.58C129.136 48.04 128.836 48.51 128.576 48.99C128.316 49.45 128.186 49.84 128.186 50.16C128.186 50.56 128.396 50.76 128.816 50.76Z" fill="#0057FF"/>
<path d="M122.848 51.09C122.648 51.09 122.478 51.05 122.338 50.97C122.198 50.89 122.128 50.74 122.128 50.52C122.128 50.24 122.198 49.92 122.338 49.56C122.478 49.2 122.638 48.85 122.818 48.51C122.998 48.15 123.158 47.86 123.298 47.64C122.598 48.38 121.868 49.08 121.108 49.74C120.728 50.06 120.308 50.36 119.848 50.64C119.388 50.92 118.898 51.06 118.378 51.06C118.178 51.06 118.038 51 117.958 50.88C117.878 50.74 117.838 50.58 117.838 50.4C117.838 50.3 117.848 50.23 117.868 50.19C117.968 49.41 118.218 48.6 118.618 47.76C119.018 46.92 119.508 46.13 120.088 45.39C120.668 44.65 121.258 44.05 121.858 43.59C122.538 43.07 123.288 42.81 124.108 42.81H127.558C127.658 42.81 127.708 42.85 127.708 42.93C127.708 43.09 127.618 43.17 127.438 43.17C127.238 43.17 127.038 43.3 126.838 43.56C126.638 43.8 126.488 44 126.388 44.16C126.248 44.38 126.028 44.75 125.728 45.27C125.428 45.79 125.118 46.36 124.798 46.98C124.498 47.58 124.238 48.14 124.018 48.66C123.798 49.18 123.688 49.56 123.688 49.8C123.688 50.08 123.828 50.22 124.108 50.22C124.408 50.22 124.748 50.08 125.128 49.8C125.508 49.52 125.888 49.18 126.268 48.78C126.668 48.36 127.028 47.95 127.348 47.55C127.688 47.13 127.958 46.8 128.158 46.56C128.278 46.68 128.268 46.85 128.128 47.07C128.008 47.27 127.898 47.43 127.798 47.55C127.398 48.07 126.938 48.61 126.418 49.17C125.898 49.71 125.328 50.17 124.708 50.55C124.108 50.91 123.488 51.09 122.848 51.09ZM119.608 50.04C119.848 50.04 120.178 49.87 120.598 49.53C121.038 49.17 121.508 48.73 122.008 48.21C122.508 47.67 122.978 47.11 123.418 46.53C123.858 45.93 124.218 45.39 124.498 44.91C124.798 44.41 124.948 44.03 124.948 43.77C124.948 43.55 124.878 43.4 124.738 43.32C124.618 43.24 124.458 43.2 124.258 43.2C123.938 43.2 123.588 43.32 123.208 43.56C122.848 43.78 122.558 44 122.338 44.22C122.098 44.44 121.808 44.79 121.468 45.27C121.148 45.73 120.828 46.24 120.508 46.8C120.188 47.36 119.918 47.9 119.698 48.42C119.478 48.94 119.368 49.36 119.368 49.68C119.368 49.92 119.448 50.04 119.608 50.04Z" fill="#0057FF"/>
<path d="M99.31 52.47C99.15 52.47 99.02 52.44 98.92 52.38C98.82 52.34 98.78 52.24 98.8 52.08C98.8 52.02 98.83 51.93 98.89 51.81C98.95 51.69 98.99 51.6 99.01 51.54C99.11 51.26 99.2 50.98 99.28 50.7C99.36 50.4 99.44 50.12 99.52 49.86C99.8 48.76 100.06 47.67 100.3 46.59C100.54 45.49 100.73 44.39 100.87 43.29C100.91 43.01 100.94 42.69 100.96 42.33C100.98 41.95 100.99 41.55 100.99 41.13C100.99 40.17 100.89 39.15 100.69 38.07C100.49 36.99 100.1 36.11 99.52 35.43H97.24C96.94 35.43 96.52 35.45 95.98 35.49C95.46 35.53 94.92 35.62 94.36 35.76C93.82 35.9 93.37 36.13 93.01 36.45C92.65 36.77 92.49 37.2 92.53 37.74C92.55 37.9 92.61 38.12 92.71 38.4C92.81 38.66 92.88 38.82 92.92 38.88L92.59 39.12C92.47 38.9 92.32 38.65 92.14 38.37C91.96 38.07 91.8 37.78 91.66 37.5C91.52 37.22 91.44 37.01 91.42 36.87C91.4 36.67 91.41 36.41 91.45 36.09C91.49 35.77 91.65 35.49 91.93 35.25C92.23 34.99 92.64 34.82 93.16 34.74C93.7 34.66 94.25 34.62 94.81 34.62C95.35 34.62 95.87 34.64 96.37 34.68C96.87 34.72 97.28 34.74 97.6 34.74C97.6 34.74 97.83 34.74 98.29 34.74C98.75 34.74 99.33 34.74 100.03 34.74C100.75 34.72 101.51 34.71 102.31 34.71C103.11 34.71 103.84 34.71 104.5 34.71L103.87 35.49C103.27 35.49 102.67 35.49 102.07 35.49C101.49 35.47 100.9 35.46 100.3 35.46C100.94 35.88 101.41 36.43 101.71 37.11C102.03 37.79 102.24 38.5 102.34 39.24C102.44 39.98 102.49 40.67 102.49 41.31C102.49 41.57 102.48 41.82 102.46 42.06C102.46 42.3 102.46 42.51 102.46 42.69C102.42 43.63 102.29 44.76 102.07 46.08C101.85 47.4 101.57 48.65 101.23 49.83C101.89 48.91 102.63 47.82 103.45 46.56C104.29 45.28 105.23 43.94 106.27 42.54C107.33 41.12 108.48 39.75 109.72 38.43C110.22 37.91 110.75 37.38 111.31 36.84C111.87 36.3 112.47 35.85 113.11 35.49C113.75 35.13 114.44 34.95 115.18 34.95C115.82 34.95 116.31 35.05 116.65 35.25L116.47 35.58C116.39 35.56 116.31 35.55 116.23 35.55C116.17 35.53 116.09 35.52 115.99 35.52C115.43 35.52 114.83 35.69 114.19 36.03C113.57 36.37 113.09 36.71 112.75 37.05C112.13 37.67 111.65 38.41 111.31 39.27C110.97 40.11 110.72 41.01 110.56 41.97C110.42 42.91 110.31 43.87 110.23 44.85C110.15 45.81 110.07 46.72 109.99 47.58C109.93 48.44 109.81 49.19 109.63 49.83C110.45 48.67 111.46 47.29 112.66 45.69C113.88 44.09 115.27 42.43 116.83 40.71C118.39 38.97 120.1 37.32 121.96 35.76C122.34 35.44 122.83 35.08 123.43 34.68C124.05 34.28 124.7 33.94 125.38 33.66C126.08 33.36 126.74 33.21 127.36 33.21C127.94 33.21 128.34 33.31 128.56 33.51C128.8 33.71 128.92 33.97 128.92 34.29C128.92 34.67 128.8 35.09 128.56 35.55C128.34 36.01 128.17 36.39 128.05 36.69C128.03 36.75 127.94 36.79 127.78 36.81C127.62 36.83 127.55 36.8 127.57 36.72C127.61 36.56 127.65 36.37 127.69 36.15C127.75 35.91 127.78 35.67 127.78 35.43C127.78 35.11 127.72 34.82 127.6 34.56C127.48 34.3 127.25 34.15 126.91 34.11C126.85 34.09 126.79 34.08 126.73 34.08C126.67 34.08 126.61 34.08 126.55 34.08C125.99 34.08 125.38 34.28 124.72 34.68C124.06 35.06 123.3 35.6 122.44 36.3C120.76 37.64 119.15 39.12 117.61 40.74C116.07 42.34 114.61 44.02 113.23 45.78C112.51 46.68 111.81 47.59 111.13 48.51C110.45 49.43 109.82 50.39 109.24 51.39C109.2 51.47 109.16 51.56 109.12 51.66C109.1 51.78 109.07 51.87 109.03 51.93C108.99 51.97 108.87 52.03 108.67 52.11C108.47 52.21 108.27 52.29 108.07 52.35C107.89 52.43 107.77 52.47 107.71 52.47C107.55 52.47 107.42 52.44 107.32 52.38C107.22 52.34 107.18 52.24 107.2 52.08C107.2 52.02 107.23 51.93 107.29 51.81C107.35 51.69 107.39 51.6 107.41 51.54C107.51 51.26 107.6 50.98 107.68 50.7C107.76 50.4 107.84 50.12 107.92 49.86C108.16 48.98 108.33 48.05 108.43 47.07C108.55 46.09 108.66 45.11 108.76 44.13C108.88 43.13 109.06 42.17 109.3 41.25C109.54 40.33 109.91 39.5 110.41 38.76C110.01 39 109.44 39.59 108.7 40.53C107.96 41.45 107.06 42.57 106 43.89C105.64 44.33 105.24 44.88 104.8 45.54C104.36 46.18 103.91 46.86 103.45 47.58C103.01 48.28 102.58 48.97 102.16 49.65C101.76 50.31 101.42 50.89 101.14 51.39C101.1 51.47 101.06 51.56 101.02 51.66C101 51.78 100.97 51.87 100.93 51.93C100.89 51.97 100.74 52.03 100.48 52.11C100.24 52.21 100 52.29 99.76 52.35C99.52 52.43 99.37 52.47 99.31 52.47Z" fill="#0057FF"/>
</svg>
